<svg id="Instagram" xmlns="http://www.w3.org/2000/svg" width="19.999" height="19.999" viewBox="0 0 19.999 19.999">
  <g id="Group_3" data-name="Group 3" transform="translate(4.862 4.862)">
    <path id="Path_7" data-name="Path 7" d="M134.493,118.334a5.138,5.138,0,1,1,5.138-5.138A5.143,5.143,0,0,1,134.493,118.334Zm0-8.565a3.427,3.427,0,1,0,3.427,3.427A3.431,3.431,0,0,0,134.493,109.769Z" transform="translate(-129.355 -108.059)" fill="#00c1de"/>
  </g>
  <g id="Group_4" data-name="Group 4">
    <path id="Path_8" data-name="Path 8" d="M116.978,100.9h-9.558a5.227,5.227,0,0,1-5.221-5.221V86.126a5.226,5.226,0,0,1,5.221-5.221h9.558a5.226,5.226,0,0,1,5.221,5.221v9.557A5.226,5.226,0,0,1,116.978,100.9Zm-9.558-18.288a3.514,3.514,0,0,0-3.51,3.51v9.557a3.514,3.514,0,0,0,3.51,3.51h9.558a3.514,3.514,0,0,0,3.51-3.51V86.126a3.514,3.514,0,0,0-3.51-3.51Z" transform="translate(-102.2 -80.905)" fill="#00c1de"/>
  </g>
  <g id="Group_5" data-name="Group 5" transform="translate(14.099 3.449)">
    <path id="Path_9" data-name="Path 9" d="M183.314,101.351a1.181,1.181,0,1,1-1.181-1.181A1.181,1.181,0,0,1,183.314,101.351Z" transform="translate(-180.951 -100.17)" fill="#00c1de"/>
  </g>
</svg>
