<svg id="Twitter" xmlns="http://www.w3.org/2000/svg" width="24.526" height="19.712" viewBox="0 0 24.526 19.712">
  <path id="Path_4" data-name="Path 4" d="M129.418,302.6a12.232,12.232,0,0,1-1.721,1.948c-.7.634-.574,1.066-.642,1.932a15.212,15.212,0,0,1-.8,3.8,14.442,14.442,0,0,1-4.3,6.244c-4.672,3.983-11.878,4.152-17,.978,3.774.161,5.466-.615,7.431-2.069-1.974-.284-3.745-.813-4.714-3.521a3.828,3.828,0,0,0,2.206-.029c-1.821-.578-3.96-1.46-3.96-4.962a4.283,4.283,0,0,0,2.268.6,5.045,5.045,0,0,1-1.537-6.678c1.578,2.354,7.408,5.657,10.061,5.076a5.172,5.172,0,0,1,3.348-5.6,5.6,5.6,0,0,1,3.964.092,4.395,4.395,0,0,1,1.419.921.39.39,0,0,0,.2.135.36.36,0,0,0,.173-.009,17.716,17.716,0,0,0,2.756-1.118,4.953,4.953,0,0,1-2.139,2.779,22.4,22.4,0,0,0,2.576-.8.5.5,0,0,1,.336-.044C129.482,302.308,129.538,302.436,129.418,302.6Z" transform="translate(-104.958 -299.996)" fill="#00c1de"/>
</svg>
