<svg id="Linkedin" xmlns="http://www.w3.org/2000/svg" width="19.65" height="19.69" viewBox="0 0 19.65 19.69">
  <g id="Group_1" data-name="Group 1">
    <path id="Path_5" data-name="Path 5" d="M959.3,326.78h3.933v12.979H959.3Z" transform="translate(-958.975 -320.068)" fill="#00c1de"/>
    <path id="Path_6" data-name="Path 6" d="M992.3,328.462c0-1.367,0-3.021-.031-4.219h3.812a15.889,15.889,0,0,1,.152,1.9c.571-1.113,1.8-2.285,4.687-2.285,3.147,0,4.172,2.273,4.172,6.359v7.2h-3.933v-6.746c0-1.98-.793-3.377-2.071-3.377-2.216,0-2.854,1.415-2.854,4.352v5.771H992.3Z" transform="translate(-985.44 -317.724)" fill="#00c1de"/>
    <circle id="Ellipse_1" data-name="Ellipse 1" cx="2.291" cy="2.291" r="2.291" transform="translate(0)" fill="#00c1de"/>
  </g>
</svg>
