<svg id="Layer_1" data-name="Layer 1" xmlns="http://www.w3.org/2000/svg" xmlns:xlink="http://www.w3.org/1999/xlink" width="101.585" height="102.476" viewBox="0 0 101.585 102.476">
  <defs>
    <clipPath id="clip-path">
      <rect id="Rectangle_130" data-name="Rectangle 130" width="101.585" height="102.476" fill="none"/>
    </clipPath>
  </defs>
  <rect id="Rectangle_126" data-name="Rectangle 126" width="94.761" height="102.476" transform="translate(6.824)" fill="#00c1de"/>
  <rect id="Rectangle_127" data-name="Rectangle 127" width="14.581" height="3.028" transform="translate(46.041 74.618)" fill="#fff"/>
  <rect id="Rectangle_128" data-name="Rectangle 128" width="21.873" height="3.028" transform="translate(42.395 80.019)" fill="#fff"/>
  <rect id="Rectangle_129" data-name="Rectangle 129" width="32.804" height="3.028" transform="translate(36.929 85.122)" fill="#fff"/>
  <g id="Group_104" data-name="Group 104" clip-path="url(#clip-path)">
    <path id="Path_10" data-name="Path 10" d="M151.737,256.783a26.025,26.025,0,0,1-25.6-21.861l-3.493,0a29.376,29.376,0,0,0,58.194,0h-3.493a26.03,26.03,0,0,1-25.6,21.86" transform="translate(-98.353 -187.998)" fill="#fff"/>
    <path id="Path_11" data-name="Path 11" d="M262.482,80.173c0,3.539-1.03,5.217-2.3,5.217s-2.3-1.622-2.3-5.217a18.006,18.006,0,0,1,2.3-8.443,18.019,18.019,0,0,1,2.3,8.443" transform="translate(-206.811 -57.403)" fill="#fff"/>
    <path id="Path_12" data-name="Path 12" d="M125.706,159.215c0,3.545-1.03,5.219-2.3,5.219s-2.305-1.622-2.305-5.219a18.018,18.018,0,0,1,2.305-8.445,18.041,18.041,0,0,1,2.3,8.445" transform="translate(-97.118 -120.655)" fill="#fff"/>
    <path id="Path_13" data-name="Path 13" d="M399.214,158.851c0,3.543-1.028,5.219-2.3,5.219s-2.3-1.622-2.3-5.219a18.035,18.035,0,0,1,2.3-8.441,18.024,18.024,0,0,1,2.3,8.441" transform="translate(-316.464 -120.367)" fill="#fff"/>
    <path id="Path_14" data-name="Path 14" d="M244.436,184.877h1.65c2.539,0,3.02-1.35,3.02-5.647v-8.589c0-3.7-.382-4.952-3.3-4.952h-1.37ZM241,162.79h5.527c5.561,0,6,1.868,6,9.14v7.438c0,6.41-1.129,8.417-6.555,8.417H241Z" transform="translate(-193.274 -130.274)" fill="#fff"/>
    <path id="Path_15" data-name="Path 15" d="M313.8,168.319c0-3.5,1.129-6.579,5.8-6.579,3.4,0,4.983,1.734,4.983,4.536v2.493h-3.23v-1.732c0-1.6-.547-2.6-1.99-2.6-1.782,0-2.129,1.278-2.129,4.29v12.258c0,2.942.927,3.461,2.022,3.461,1.271,0,2.1-.9,2.1-2.978v-1.73h3.23v2.768c0,2.629-1.067,4.638-5.048,4.638-4.325,0-5.733-2.317-5.733-6.192Z" transform="translate(-251.657 -129.434)" fill="#fff"/>
    <path id="Path_16" data-name="Path 16" d="M180.929,162.79H177.5v19.041c0,2.942-.927,3.462-2.026,3.462-1.269,0-2.091-.9-2.091-2.978v-1.73H170.15v2.768c0,2.629,1.063,4.638,5.048,4.638,4.321,0,5.731-2.319,5.731-6.192Z" transform="translate(-136.455 -130.274)" fill="#fff"/>
  </g>
  <rect id="Rectangle_131" data-name="Rectangle 131" width="6.824" height="17.08" transform="translate(0 85.396)" fill="#f9aa58"/>
  <rect id="Rectangle_132" data-name="Rectangle 132" width="6.824" height="17.078" transform="translate(0 68.316)" fill="#b66497"/>
  <rect id="Rectangle_133" data-name="Rectangle 133" width="6.824" height="17.08" transform="translate(0 51.236)" fill="#ef5364"/>
  <rect id="Rectangle_134" data-name="Rectangle 134" width="6.824" height="17.08" transform="translate(0 17.08)" fill="#b9d988"/>
  <rect id="Rectangle_135" data-name="Rectangle 135" width="6.824" height="17.078" transform="translate(0 0.002)" fill="#00b3a7"/>
  <rect id="Rectangle_136" data-name="Rectangle 136" width="6.824" height="17.078" transform="translate(0 34.158)" fill="#009bd3"/>
</svg>
